inDegrees=yes
name=ik_S44_A07_T01
DataType=double
version=3
OpenSimVersion=4.3-2021-08-27-4bc7ad9
endheader
time	pelvis_tilt	pelvis_list	pelvis_rotation	pelvis_tx	pelvis_ty	pelvis_tz	hip_flexion_r	hip_adduction_r	hip_rotation_r	knee_angle_r	knee_angle_r_beta	ankle_angle_r	subtalar_angle_r	mtp_angle_r	hip_flexion_l	hip_adduction_l	hip_rotation_l	knee_angle_l	knee_angle_l_beta	ankle_angle_l	subtalar_angle_l	mtp_angle_l	lumbar_extension	lumbar_bending	lumbar_rotation	arm_flex_r	arm_add_r	arm_rot_r	elbow_flex_r	pro_sup_r	wrist_flex_r	wrist_dev_r	arm_flex_l	arm_add_l	arm_rot_l	elbow_flex_l	pro_sup_l	wrist_flex_l	wrist_dev_l
0	0	0	0	0	0.9399999999999999	0	0	0	0	0	0	0	0	0	0	0	0	0	0	0	0	0	0	0	0	0	0	0	0	89.99999999963507	0	0	0	0	0	0	89.99999999869995	0	0
0.02	-12.06209570643316	-2.477335307001649	28.75749117493998	0	0.9399999999999999	0	2.855204374085762	-1.346386166633103	-0.9622359023813134	4.42562626853681	0.07724174984871807	0	0	0	2.855204374085762	-1.346386166633103	-0.9622359023813134	4.42562626853681	0.07724174984871807	0	0	0	-6.225410752847355	-3.994942893666259	7.693231221757031	41.12549308922036	1.403456396429929	5.017449450349602	38.89248512350754	141.5951741490578	0	0	41.11700658350014	2.27834425819192	1.472188090624647	38.761501526381	130.7057399099538	0	0
0.04	-11.9471840750508	-2.51942587249642	28.35046311080157	0	0.9399999999999999	0	28.23384421913869	-16.90089241906932	-8.975807958600608	54.82898345046569	0.9569462867321076	0	0	0	28.23384421913869	-16.90089241906932	-8.975807958600608	54.82898345046569	0.9569462867321076	0	0	0	-6.265629389461496	-3.932375507636589	8.145569146314324	41.1331399945485	1.397801458880581	5.010098328957486	38.86891130387916	141.5962333302203	0	0	41.08093439062831	2.291448193066769	1.532365966674461	38.78332117533358	130.6709209091431	0	0
0.06	-11.94004854317913	-2.501986398197147	28.34608804981553	0	0.9399999999999999	0	28.25989101979525	-16.86708193382324	-8.979122559993247	54.8291572000248	0.956949319233988	0	0	0	28.25989101979525	-16.86708193382324	-8.979122559993247	54.8291572000248	0.956949319233988	0	0	0	-6.257005751375557	-3.912924785210935	8.141041123366525	41.10298481560889	1.378311463763226	5.032746690318481	38.89045205120307	141.5679649380147	0	0	41.05416526718639	2.2865827751298	1.549909903552706	38.78667272420898	130.6433526460872	0	0
0.08	-11.9389736397007	-2.495958462456223	28.34751851435453	0	0.9399999999999999	0	28.26719390384035	-16.86002063441449	-8.979979022799878	54.82920999680623	0.9569502407116584	0	0	0	28.26719390384035	-16.86002063441449	-8.979979022799878	54.82920999680623	0.9569502407116584	0	0	0	-6.254978861124462	-3.906189602450084	8.142711802603921	41.12056089534918	1.432652715226723	5.01236777548798	38.86308241395566	141.604257792588	0	0	41.0441467988812	2.290354650210987	1.584139524578446	38.76155209637755	130.6565455816163	0	0
0.1	-11.93563735158983	-2.485818203642252	28.3432981565801	0	0.9399999999999999	0	28.27735367653295	-16.84164901236259	-8.98152384822315	54.82927179646827	0.9569513193192375	0	0	0	28.27735367653295	-16.84164901236259	-8.98152384822315	54.82927179646827	0.9569513193192375	0	0	0	-6.249389262948458	-3.896060225145301	8.140048354162355	41.12920854997849	1.452700638483306	5.008652876824324	38.86284488076563	141.5937797390716	0	0	41.037568834392	2.298636194616619	1.585320048886314	38.74815199132284	130.6319338470259	0	0
0.12	-11.92388239701285	-2.462454790440098	28.34866323974201	0	0.9399999999999999	0	28.30008531888904	-16.80723658597525	-8.984631411433451	54.82941704080794	0.9569538543111846	0	0	0	28.30008531888904	-16.80723658597525	-8.984631411433451	54.82941704080794	0.9569538543111846	0	0	0	-6.232780170761226	-3.875076747774241	8.137653358810176	41.1140135279093	1.446486439828473	5.003898058911694	38.88328709924308	141.5498055042297	0	0	41.019677016069	2.303218529918616	1.58121823522976	38.75975530133029	130.573665822183	0	0
0.14	-11.91877121375861	-2.442604915485431	28.36324950298104	0	0.9399999999999999	0	28.29746532820926	-16.81613530228192	-8.98409282786905	54.82940784241273	0.9569536937689023	0	0	0	28.29746532820926	-16.81613530228192	-8.98409282786905	54.82940784241273	0.9569536937689023	0	0	0	-6.218806369082425	-3.859543862872789	8.130503730772642	41.11786682646642	1.450383338035942	5.048889682271812	38.79561539728249	141.6211998979252	0	0	41.01616965523978	2.324469879304476	1.572028596464246	38.66799752019796	130.5800484797477	0	0
0.16	-11.90813635432079	-2.44094636416582	28.36809939250668	0	0.9399999999999999	0	28.32151707121796	-16.78192066558297	-8.987253756061909	54.82956415068311	0.9569564218628687	0	0	0	28.32151707121796	-16.78192066558297	-8.987253756061909	54.82956415068311	0.9569564218628687	0	0	0	-6.21382923142498	-3.856407902896646	8.125438729189971	41.12555557093231	1.462554437170095	5.077349360482716	38.82401997199281	141.5514143348566	0	0	41.02638852098597	2.323965948308433	1.601448191598082	38.69509445564619	130.5333084377872	0	0
0.18	-11.9025739787909	-2.433705510545126	28.36855650649828	0	0.9399999999999999	0	28.32149451320459	-16.77917778766685	-8.987380603301593	54.82956150641603	0.9569563757117017	0	0	0	28.32149451320459	-16.77917778766685	-8.987380603301593	54.82956150641603	0.9569563757117017	0	0	0	-6.205377638237255	-3.852821249032734	8.125060463769294	41.1222397937864	1.466862289221036	5.085959910235323	38.79798112506232	141.5539541038342	0	0	41.03774595788215	2.320216718829883	1.607401884425637	38.67092240083065	130.5494283978928	0	0
0.2	-11.89628505399186	-2.426348801258261	28.37367177096469	0	0.9399999999999999	0	28.32946258805535	-16.76749477467802	-8.988456656234682	54.82961358352642	0.9569572846287429	0	0	0	28.32946258805535	-16.76749477467802	-8.988456656234682	54.82961358352642	0.9569572846287429	0	0	0	-6.198065887088632	-3.847041799010562	8.122510668904132	41.12773806000521	1.482247690888297	5.100123687525585	38.77977931977834	141.527244426612	0	0	41.04972392138936	2.337575698885531	1.610700694125904	38.64906802364592	130.5507430200011	0	0
0.22	-11.89062638657591	-2.415096021571162	28.3617017477413	0	0.9399999999999999	0	28.2942155491739	-16.80251380401027	-8.984550536664653	54.82936690041595	0.9569529791962561	0	0	0	28.2942155491739	-16.80251380401027	-8.984550536664653	54.82936690041595	0.9569529791962561	0	0	0	-6.179362398937784	-3.850701192326493	8.129309482873291	41.14958894188594	1.497607753522468	5.091392624603835	38.6738068550077	141.5801852284343	0	0	41.06087050208819	2.37062120346011	1.583055760973172	38.54098837676482	130.6317979210359	0	0
0.24	-11.8837302906286	-2.414612033416491	28.37682250587925	0	0.9399999999999999	0	28.33219189218034	-16.75849652594139	-8.989117585493805	54.82962556099047	0.9569574936749267	0	0	0	28.33219189218034	-16.75849652594139	-8.989117585493805	54.82962556099047	0.9569574936749267	0	0	0	-6.18184677547193	-3.842001189435667	8.120029108301567	41.13886768016302	1.480916313122115	5.09384180570691	38.69710784844614	141.4756823570661	0	0	41.07995730372716	2.355534524378895	1.571093813184814	38.57071207714749	130.58592972724	0	0
0.26	-11.87770593179964	-2.407297714365998	28.39274901217134	0	0.9399999999999999	0	28.32356932340837	-16.77213059175949	-8.987946799591892	54.82957279360374	0.9569565727102906	0	0	0	28.32356932340837	-16.77213059175949	-8.987946799591892	54.82957279360374	0.9569565727102906	0	0	0	-6.171324286047047	-3.840344634905241	8.117390316792878	41.15239536533901	1.48987483010806	5.099310868617147	38.62982669324445	141.5206911001286	0	0	41.08654698821748	2.378583409075064	1.553719172518861	38.50040363055398	130.654953667658	0	0
0.28	-11.87934247805201	-2.404581051381322	28.40242715902122	0	0.9399999999999999	0	28.33023854023309	-16.76462516473293	-8.988754554531164	54.82961939401189	0.9569573860408455	0	0	0	28.33023854023309	-16.76462516473293	-8.988754554531164	54.82961939401189	0.9569573860408455	0	0	0	-6.1731229396154	-3.835044224752169	8.115284517694196	41.15718163045376	1.492159321813856	5.113383380169067	38.60818054963602	141.5106208229969	0	0	41.09726097389304	2.384330495187171	1.550704366668177	38.48068512373364	130.6855402628873	0	0
0.3	-11.87775330171358	-2.399876279398645	28.40050640997674	0	0.9399999999999999	0	28.34157143494014	-16.74585058648	-8.990407595245635	54.82969048135271	0.9569586267489995	0	0	0	28.34157143494014	-16.74585058648	-8.990407595245635	54.82969048135271	0.9569586267489995	0	0	0	-6.171848295850739	-3.828826947396535	8.115179357359379	41.17239232262798	1.498324208554198	5.111921873762305	38.59183970556179	141.4971737896641	0	0	41.0892744782285	2.392570060676595	1.568613425860348	38.47524858850631	130.684132411873	0	0
0.32	-11.87774171366785	-2.38682788967597	28.40830200213118	0	0.9399999999999999	0	28.3573009503517	-16.72493829682353	-8.992461300508912	54.82979540157595	0.9569604579523469	0	0	0	28.3573009503517	-16.72493829682353	-8.992461300508912	54.82979540157595	0.9569604579523469	0	0	0	-6.169171993577294	-3.813070521643068	8.115032414509683	41.17879041716681	1.497774202953912	5.11915366520956	38.56749143623959	141.4891789401391	0	3.868025635237789e-51	41.07996598041645	2.419100716803216	1.558116952031287	38.47545817477656	130.6768972042552	0	3.868025635237789e-51
0.34	-11.87197642948122	-2.38077938821776	28.411711384043	0	0.9399999999999999	0	28.3798484522501	-16.70086377547648	-8.995097526842848	54.82995289987308	0.9569632068161981	0	0	0	28.3798484522501	-16.70086377547648	-8.995097526842848	54.82995289987308	0.9569632068161981	0	0	0	-6.166408424126198	-3.804399775204389	8.116323563239058	41.17418862733744	1.499150198421373	5.134922198683888	38.54587277248496	141.4796183102966	0	0	41.07133230318053	2.419585861277505	1.600176071175115	38.46838104055376	130.6559643495994	0	0
0.36	-11.86477064216581	-2.375459757696371	28.41208797045764	0	0.9399999999999999	0	28.4090225606194	-16.65990523697379	-8.998930583175179	54.83014281399637	0.9569665214429455	0	0	0	28.4090225606194	-16.65990523697379	-8.998930583175179	54.83014281399637	0.9569665214429455	0	0	0	-6.163925061596601	-3.79500436204203	8.111499557690395	41.16406664893184	1.483610630538412	5.151894230034469	38.57427028155589	141.4158336313364	0	0	41.07119925697211	2.393532096755238	1.638295418204395	38.5018176901616	130.6033064839028	0	0
0.3800000000000001	-11.86239106494317	-2.366167476971985	28.43247100172769	0	0.9399999999999999	0	28.40339709619194	-16.67025956525352	-8.998107192606859	54.83011048752741	0.9569659572396266	0	0	0	28.40339709619194	-16.67025956525352	-8.998107192606859	54.83011048752741	0.9569659572396266	0	0	0	-6.156425365369609	-3.789277639652954	8.111418391527618	41.19615242131497	1.516595657951717	5.121258300788911	38.5121061731469	141.4807024953506	0	1.077613842297402e-35	41.04760821366271	2.415743435627308	1.621608137533354	38.45145483600716	130.6267317015728	0	1.077613842297402e-35
0.4000000000000001	-11.85788520913494	-2.365043743830512	28.44510493298083	0	0.9399999999999999	0	28.42365034163856	-16.67385659678563	-8.999269831636937	54.83028575929472	0.956969016309052	0	0	0	28.42365034163856	-16.67385659678563	-8.999269831636937	54.83028575929472	0.956969016309052	0	0	0	-6.157645877846153	-3.783309297768599	8.108473769028077	41.1793078813669	1.506370157425829	5.115523803131062	38.47419002987911	141.5144159031103	0	0	41.05807885002839	2.408047279340794	1.621500357818291	38.4434255750139	130.6351689052876	0	0
